{
  "accessors": [
    {
      "bufferView": 2,
      "componentType": 5126,
      "count": 1830,
      "max": [
        0.64979797601699829,
        1.5747478008270264,
        1.8403536081314087
      ],
      "min": [
        -0.68337100744247437,
        -1.6119593381881714,
        -1.0689057111740112
      ],
      "type": "VEC3"
    },
    {
      "bufferView": 2,
      "byteOffset": 21960,
      "componentType": 5126,
      "count": 1830,
      "max": [
        0.99810445308685303,
        0.99710875749588013,
        0.99918800592422485
      ],
      "min": [
        -0.99833697080612183,
        -0.99976187944412231,
        -0.99519169330596924
      ],
      "type": "VEC3"
    },
    {
      "bufferView": 3,
      "componentType": 5126,
      "count": 1830,
      "max": [
        0.99959802627563477,
        0.99963629245758057,
        0.9980316162109375,
        1
      ],
      "min": [
        -0.99864965677261353,
        -0.99935400485992432,
        -0.9987337589263916,
        -1
      ],
      "type": "VEC4"
    },
    {
      "bufferView": 1,
      "componentType": 5126,
      "count": 1830,
      "max": [
        0.99343001842498779,
        0.99939000606536865
      ],
      "min": [
        0.00060999998822808266,
        0.00060999998822808266
      ],
      "type": "VEC2"
    },
    {
      "bufferView": 1,
      "byteOffset": 14640,
      "componentType": 5126,
      "count": 1830,
      "max": [
        0.99343001842498779,
        0.99939000606536865
      ],
      "min": [
        0.00060999998822808266,
        0.00060999998822808266
      ],
      "type": "VEC2"
    },
    {
      "bufferView": 0,
      "componentType": 5125,
      "count": 6234,
      "max": [
        1829
      ],
      "min": [
        0
      ],
      "type": "SCALAR"
    },
    {
      "bufferView": 2,
      "byteOffset": 43920,
      "componentType": 5126,
      "count": 960,
      "max": [
        1.2996100187301636,
        1.0354100465774536,
        0.4534200131893158
      ],
      "min": [
        -1.0509599447250366,
        -1.121999979019165,
        -0.92927998304367065
      ],
      "type": "VEC3"
    },
    {
      "bufferView": 2,
      "byteOffset": 55440,
      "componentType": 5126,
      "count": 960,
      "max": [
        0.9953538179397583,
        0.99166905879974365,
        0.99718213081359863
      ],
      "min": [
        -0.99732130765914917,
        -0.99174225330352783,
        -0.99056375026702881
      ],
      "type": "VEC3"
    },
    {
      "bufferView": 0,
      "byteOffset": 24936,
      "componentType": 5125,
      "count": 960,
      "max": [
        959
      ],
      "min": [
        0
      ],
      "type": "SCALAR"
    },
    {
      "bufferView": 4,
      "componentType": 5126,
      "count": 1,
      "max": [
        1,
        0,
        0,
        0,
        0,
        1,
        0,
        0,
        0,
        0,
        1,
        0,
        0,
        0,
        0,
        1
      ],
      "min": [
        1,
        0,
        0,
        0,
        0,
        1,
        0,
        0,
        0,
        0,
        1,
        0,
        0,
        0,
        0,
        1
      ],
      "type": "MAT4"
    }
  ],
  "asset": {
    "extras": {
      "author": "hsinpa (https://sketchfab.com/hsinpa)",
      "license": "CC-BY-4.0 (http://creativecommons.org/licenses/by/4.0/)",
      "source": "https://sketchfab.com/models/1ba7cc21c45248e0a8980134473dc6ef",
      "title": "Cat and Rack"
    },
    "generator": "Sketchfab-3.41.0",
    "version": "2.0"
  },
  "bufferViews": [
    {
      "buffer": 0,
      "byteLength": 28776,
      "byteOffset": 0,
      "name": "floatBufferViews",
      "target": 34963
    },
    {
      "buffer": 0,
      "byteLength": 29280,
      "byteOffset": 28776,
      "byteStride": 8,
      "name": "floatBufferViews",
      "target": 34962
    },
    {
      "buffer": 0,
      "byteLength": 66960,
      "byteOffset": 58056,
      "byteStride": 12,
      "name": "floatBufferViews",
      "target": 34962
    },
    {
      "buffer": 0,
      "byteLength": 29280,
      "byteOffset": 125016,
      "byteStride": 16,
      "name": "floatBufferViews",
      "target": 34962
    },
    {
      "buffer": 0,
      "byteLength": 64,
      "byteOffset": 154296,
      "byteStride": 64,
      "name": "floatBufferViews"
    }
  ],
  "buffers": [
    {
      "byteLength": 154360,
      "uri": "scene.bin"
    }
  ],
  "images": [
    {
      "uri": "textures/Material_baseColor.png"
    }
  ],
  "materials": [
    {
      "doubleSided": true,
      "emissiveFactor": [
        0,
        0,
        0
      ],
      "name": "Rock_0",
      "pbrMetallicRoughness": {
        "baseColorFactor": [
          0.1055604129,
          0.1051566404,
          0.1045911638,
          1
        ],
        "metallicFactor": 0.47999999999999998,
        "roughnessFactor": 0.31
      }
    },
    {
      "doubleSided": true,
      "emissiveFactor": [
        0,
        0,
        0
      ],
      "name": "Material",
      "pbrMetallicRoughness": {
        "baseColorFactor": [
          1,
          1,
          1,
          1
        ],
        "baseColorTexture": {
          "index": 0,
          "texCoord": 0
        },
        "metallicFactor": 0,
        "roughnessFactor": 0.23999999999999999
      }
    }
  ],
  "meshes": [
    {
      "name": "Cat_0",
      "primitives": [
        {
          "attributes": {
            "NORMAL": 1,
            "POSITION": 0,
            "TANGENT": 2,
            "TEXCOORD_0": 3,
            "TEXCOORD_1": 4
          },
          "indices": 5,
          "material": 1,
          "mode": 4
        }
      ]
    },
    {
      "name": "Rock_0",
      "primitives": [
        {
          "attributes": {
            "NORMAL": 7,
            "POSITION": 6
          },
          "indices": 8,
          "material": 0,
          "mode": 4
        }
      ]
    }
  ],
  "nodes": [
    {
      "children": [
        1
      ],
      "name": "RootNode (gltf orientation matrix)",
      "rotation": [
        -0.70710678118654746,
        -0,
        -0,
        0.70710678118654757
      ]
    },
    {
      "children": [
        2
      ],
      "name": "RootNode (model correction matrix)"
    },
    {
      "children": [
        3,
        7
      ],
      "name": "Root"
    },
    {
      "children": [
        4,
        5
      ],
      "matrix": [
        1,
        0,
        -0,
        0,
        0,
        -0.0045700000000000011,
        0.99999000000000005,
        0,
        0,
        -0.99999000000000005,
        -0.0045700000000000011,
        0,
        0.0075800000000000025,
        0.67349000000000014,
        -0.16479000000000005,
        1
      ],
      "name": "Armature"
    },
    {
      "name": "Armature_rootJoint"
    },
    {
      "children": [
        6
      ],
      "matrix": [
        1,
        0,
        0,
        0,
        0,
        -0.0045700000000000011,
        -0.99999000000000005,
        0,
        0,
        0.99999000000000005,
        -0.0045700000000000011,
        0,
        -0.0075800000000000025,
        1.2753199999999998,
        0.66766000000000014,
        1
      ],
      "name": "Cat"
    },
    {
      "mesh": 0,
      "name": "Cat_0"
    },
    {
      "children": [
        8
      ],
      "matrix": [
        -0.97879000000000005,
        -0.20486000000000001,
        0,
        0,
        0.20486000000000001,
        -0.97879000000000005,
        0,
        0,
        0,
        0,
        1,
        0,
        0.014020000000000001,
        -2.0305900000000001,
        0.74894000000000016,
        1
      ],
      "name": "Rock"
    },
    {
      "mesh": 1,
      "name": "Rock_0"
    }
  ],
  "samplers": [
    {
      "magFilter": 9729,
      "minFilter": 9987,
      "wrapS": 10497,
      "wrapT": 10497
    }
  ],
  "scene": 0,
  "scenes": [
    {
      "name": "OSG_Scene",
      "nodes": [
        0
      ]
    }
  ],
  "skins": [
    {
      "inverseBindMatrices": 9,
      "joints": [
        4
      ],
      "skeleton": 4
    }
  ],
  "textures": [
    {
      "sampler": 0,
      "source": 0
    }
  ]
}

